<svg xmlns="http://www.w3.org/2000/svg" xmlns:xlink="http://www.w3.org/1999/xlink" width="4000" zoomAndPan="magnify" viewBox="0 0 3000 749.999995" height="1000" preserveAspectRatio="xMidYMid meet" version="1.0"><defs><g/></defs><g fill="#ffffff" fill-opacity="1"><g transform="translate(284.806638, 531.473915)"><g><path d="M 140.683594 -256.980469 L 231.972656 -256.980469 L 231.972656 -310.753906 L 140.683594 -310.753906 L 140.683594 -422.050781 L 86.910156 -422.050781 L 86.910156 -310.753906 L 18.757812 -310.753906 L 18.757812 -256.980469 L 86.910156 -256.980469 L 86.910156 -145.058594 C 86.910156 -64.402344 151.3125 0 231.972656 0 L 231.972656 -53.773438 C 181.324219 -55.648438 140.683594 -94.414062 140.683594 -145.058594 Z M 140.683594 -256.980469 "/></g></g></g><g fill="#ffffff" fill-opacity="1"><g transform="translate(535.535459, 531.473915)"><g><path d="M 163.816406 -290.746094 C 83.160156 -290.746094 18.757812 -225.09375 18.757812 -145.6875 C 18.757812 -65.027344 83.160156 -0.625 163.816406 -0.625 C 203.835938 -0.625 239.472656 -16.257812 266.359375 -43.144531 L 228.84375 -80.660156 C 211.335938 -63.777344 188.203125 -53.773438 163.816406 -53.773438 C 121.925781 -53.773438 88.785156 -81.285156 79.40625 -118.800781 L 305.753906 -118.800781 C 307.628906 -128.179688 308.878906 -137.558594 308.878906 -145.6875 C 308.878906 -223.84375 243.226562 -290.746094 163.816406 -290.746094 Z M 163.816406 -236.972656 C 204.460938 -236.972656 238.847656 -210.085938 248.226562 -172.570312 L 80.035156 -172.570312 C 88.160156 -209.460938 123.800781 -236.972656 163.816406 -236.972656 Z M 163.816406 -236.972656 "/></g></g></g><g fill="#ffffff" fill-opacity="1"><g transform="translate(863.171188, 531.473915)"><g><path d="M 337.015625 -286.367188 C 297 -286.367188 260.734375 -266.984375 240.101562 -235.097656 C 218.214844 -266.984375 183.203125 -286.367188 142.558594 -286.367188 C 115.671875 -286.367188 90.664062 -275.113281 72.53125 -258.230469 L 72.53125 -290.746094 L 18.757812 -290.746094 L 18.757812 0 L 72.53125 0 L 72.53125 -161.941406 C 72.53125 -200.082031 104.417969 -231.972656 142.558594 -231.972656 C 180.699219 -231.972656 213.214844 -200.082031 213.214844 -161.941406 L 213.214844 0 L 266.984375 0 L 266.984375 -161.941406 C 266.984375 -200.082031 298.875 -231.972656 337.015625 -231.972656 C 376.40625 -231.972656 407.667969 -200.082031 407.667969 -161.941406 L 407.667969 0 L 461.441406 0 L 461.441406 -161.941406 C 461.441406 -229.46875 405.792969 -286.367188 337.015625 -286.367188 Z M 337.015625 -286.367188 "/></g></g></g><g fill="#ffffff" fill-opacity="1"><g transform="translate(1343.370064, 531.473915)"><g><path d="M 168.820312 -290.746094 C 131.304688 -290.746094 98.164062 -275.113281 75.03125 -250.730469 L 75.03125 -290.746094 L 18.757812 -290.746094 L 18.757812 131.304688 L 75.03125 131.304688 L 75.03125 -40.015625 C 98.164062 -15.632812 131.304688 -0.625 168.820312 -0.625 C 251.355469 -0.625 318.882812 -65.027344 318.882812 -145.058594 C 318.882812 -225.09375 251.355469 -290.746094 168.820312 -290.746094 Z M 168.820312 -54.398438 C 116.921875 -56.273438 75.03125 -95.039062 75.03125 -145.058594 C 75.03125 -196.332031 118.175781 -236.972656 168.820312 -236.972656 C 221.34375 -236.972656 262.609375 -195.082031 262.609375 -145.058594 C 262.609375 -95.039062 219.464844 -54.398438 168.820312 -54.398438 Z M 168.820312 -54.398438 "/></g></g></g><g fill="#ffffff" fill-opacity="1"><g transform="translate(1681.009848, 531.473915)"><g><path d="M 163.816406 -290.746094 C 83.160156 -290.746094 18.757812 -225.09375 18.757812 -145.058594 C 18.757812 -64.402344 83.160156 0 163.816406 0 C 243.851562 0 309.503906 -64.402344 309.503906 -145.058594 C 309.503906 -225.09375 243.851562 -290.746094 163.816406 -290.746094 Z M 163.816406 -53.773438 C 113.171875 -53.773438 72.53125 -94.414062 72.53125 -145.058594 C 72.53125 -195.707031 113.171875 -236.972656 163.816406 -236.972656 C 214.464844 -236.972656 255.730469 -195.707031 255.730469 -145.058594 C 255.730469 -94.414062 214.464844 -53.773438 163.816406 -53.773438 Z M 163.816406 -53.773438 "/></g></g></g><g fill="#ffffff" fill-opacity="1"><g transform="translate(2009.270784, 531.473915)"><g><path d="M 164.445312 -290.746094 C 126.929688 -290.746094 95.039062 -275.113281 72.53125 -250.730469 L 72.53125 -290.746094 L 18.757812 -290.746094 L 18.757812 0 L 72.53125 0 L 72.53125 -145.058594 C 72.53125 -195.707031 113.796875 -236.972656 164.445312 -236.972656 C 190.078125 -236.972656 211.335938 -227.59375 228.84375 -209.460938 C 239.472656 -221.34375 254.480469 -235.097656 267.609375 -247.601562 C 240.726562 -274.488281 204.460938 -290.746094 164.445312 -290.746094 Z M 164.445312 -290.746094 "/></g></g></g><g fill="#ffffff" fill-opacity="1"><g transform="translate(2295.639303, 531.473915)"><g><path d="M 255.730469 -290.746094 L 255.730469 -250.730469 C 233.222656 -275.738281 200.707031 -290.746094 163.816406 -290.746094 C 83.160156 -290.746094 18.757812 -225.09375 18.757812 -145.058594 C 18.757812 -64.402344 83.160156 0 163.816406 0 C 200.707031 0 233.222656 -15.007812 255.730469 -39.390625 L 255.730469 0 L 309.503906 0 L 309.503906 -290.746094 Z M 163.816406 -53.773438 C 113.171875 -53.773438 72.53125 -94.414062 72.53125 -145.058594 C 72.53125 -195.707031 113.171875 -236.972656 163.816406 -236.972656 C 214.464844 -236.972656 255.730469 -195.707031 255.730469 -145.058594 C 255.730469 -94.414062 214.464844 -53.773438 163.816406 -53.773438 Z M 163.816406 -53.773438 "/></g></g></g><g fill="#ffffff" fill-opacity="1"><g transform="translate(2623.900149, 531.473915)"><g><path d="M 72.53125 -422.050781 L 18.757812 -422.050781 L 18.757812 0 L 72.53125 0 Z M 72.53125 -422.050781 "/></g></g></g></svg>